<mxfile host="app.diagrams.net" agent="Mozilla/5.0 (Windows NT 10.0; WOW64) AppleWebKit/537.36 (KHTML, like Gecko) Chrome/80.0.3987.87 Safari/537.36 SE 2.X MetaSr 1.0" version="26.0.5">
  <diagram id="prtHgNgQTEPvFCAcTncT" name="Page-1">
    <mxGraphModel dx="1401" dy="727" grid="1" gridSize="10" guides="1" tooltips="1" connect="1" arrows="1" fold="1" page="1" pageScale="1" pageWidth="827" pageHeight="1169" math="0" shadow="0">
      <root>
        <mxCell id="0" />
        <mxCell id="1" parent="0" />
        <mxCell id="7NTOy5Gc9yeo1NsP6rQI-1" value="资产管理系统" style="swimlane;childLayout=stackLayout;resizeParent=1;resizeParentMax=0;startSize=20;html=1;" vertex="1" parent="1">
          <mxGeometry x="160.00000000000045" y="140" width="360" height="480" as="geometry" />
        </mxCell>
        <mxCell id="7NTOy5Gc9yeo1NsP6rQI-2" value="Lane 1" style="swimlane;startSize=20;html=1;" vertex="1" parent="7NTOy5Gc9yeo1NsP6rQI-1">
          <mxGeometry y="20" width="120" height="460" as="geometry" />
        </mxCell>
        <mxCell id="7NTOy5Gc9yeo1NsP6rQI-3" value="Lane 2" style="swimlane;startSize=20;html=1;" vertex="1" parent="7NTOy5Gc9yeo1NsP6rQI-1">
          <mxGeometry x="120" y="20" width="120" height="460" as="geometry" />
        </mxCell>
        <mxCell id="7NTOy5Gc9yeo1NsP6rQI-4" value="Lane 3" style="swimlane;startSize=20;html=1;" vertex="1" parent="7NTOy5Gc9yeo1NsP6rQI-1">
          <mxGeometry x="240" y="20" width="120" height="460" as="geometry" />
        </mxCell>
      </root>
    </mxGraphModel>
  </diagram>
</mxfile>
